<?xml version="1.0" standalone="no"?><!DOCTYPE svg PUBLIC "-//W3C//DTD SVG 1.1//EN" "http://www.w3.org/Graphics/SVG/1.1/DTD/svg11.dtd"><svg t="1679653913243" class="icon" viewBox="0 0 1024 1024" version="1.1" xmlns="http://www.w3.org/2000/svg" p-id="11114" xmlns:xlink="http://www.w3.org/1999/xlink" width="16" height="16"><path d="M959.7 522.2c0-6.1-1.1-12.3-3.3-18.3L851.8 220.7c-7.4-20.2-28.4-33.7-52.1-33.7h-575c-23.7 0-44.6 13.5-52.1 33.7L68.1 503.9c-1.9 5.1-2.9 10.3-3.2 15.4-0.3 1-0.4 2-0.4 3.1V791c0 25.3 20.8 46 46.3 46h802.8c25.4 0 46.3-20.7 46.3-46V522.3c-0.2 0-0.2-0.1-0.2-0.1zM680.6 570h-337v-50.4c0-15.5-12.5-28-28-28H158.2l83-224.6h542.1l82.9 224.5H708.6c-15.5 0-28 12.5-28 28V570z" p-id="11115" fill="#ffffff"></path></svg>