<?xml version="1.0" standalone="no"?><!DOCTYPE svg PUBLIC "-//W3C//DTD SVG 1.1//EN" "http://www.w3.org/Graphics/SVG/1.1/DTD/svg11.dtd"><svg t="1680966702674" class="icon" viewBox="0 0 1031 1024" version="1.1" xmlns="http://www.w3.org/2000/svg" p-id="8821" xmlns:xlink="http://www.w3.org/1999/xlink" width="16.109375" height="16"><path d="M3.584 674.0992m-3.584 0a3.5 3.5 0 1 0 7.168 0 3.5 3.5 0 1 0-7.168 0Z" p-id="8822" fill="#7b7b7b"></path><path d="M518.0416 0C235.2128 0 6.0416 229.2736 6.0416 512s229.1712 512 512 512c282.7264 0 512-229.2736 512-512S800.768 0 518.0416 0zM518.0416 947.2C278.1184 947.2 82.8416 752.0256 82.8416 512S278.1184 76.8 518.0416 76.8s435.2 195.1744 435.2 435.2S757.9648 947.2 518.0416 947.2z" p-id="8823" fill="#7b7b7b"></path><path d="M518.0416 183.3984c-21.1968 0-38.4 17.2032-38.4 38.4l0 268.8L313.2416 490.5984c-21.1968 0-38.4 17.2032-38.4 38.4 0 21.1968 17.2032 38.4 38.4 38.4l166.4 0 76.8 0 0-76.8L556.4416 221.7984C556.4416 200.6016 539.2384 183.3984 518.0416 183.3984z" p-id="8824" fill="#7b7b7b"></path></svg>