<?xml version="1.0" standalone="no"?><!DOCTYPE svg PUBLIC "-//W3C//DTD SVG 1.1//EN" "http://www.w3.org/Graphics/SVG/1.1/DTD/svg11.dtd"><svg t="1680969689984" class="icon" viewBox="0 0 1024 1024" version="1.1" xmlns="http://www.w3.org/2000/svg" p-id="7308" xmlns:xlink="http://www.w3.org/1999/xlink" width="16" height="16"><path d="M146.285714 0h731.428572a146.285714 146.285714 0 0 1 146.285714 146.285714v731.428572a146.285714 146.285714 0 0 1-146.285714 146.285714H146.285714a146.285714 146.285714 0 0 1-146.285714-146.285714V146.285714a146.285714 146.285714 0 0 1 146.285714-146.285714z m0 73.142857a73.142857 73.142857 0 0 0-73.142857 73.142857v731.428572a73.142857 73.142857 0 0 0 73.142857 73.142857h731.428572a73.142857 73.142857 0 0 0 73.142857-73.142857V146.285714a73.142857 73.142857 0 0 0-73.142857-73.142857H146.285714z" fill="#7b7b7b" p-id="7309"></path><path d="M0 219.428571h1024v73.142858H0V219.428571z m987.428571 36.571429L950.857143 292.571429V219.428571l36.571428 36.571429z" fill="#7b7b7b" p-id="7310"></path><path d="M475.428571 438.857143h73.142858a36.571429 36.571429 0 0 1 0 73.142857h-73.142858a36.571429 36.571429 0 0 1 0-73.142857z m219.428572 0h73.142857a36.571429 36.571429 0 1 1 0 73.142857h-73.142857a36.571429 36.571429 0 0 1 0-73.142857z m-438.857143 146.285714h73.142857a36.571429 36.571429 0 0 1 0 73.142857h-73.142857a36.571429 36.571429 0 0 1 0-73.142857z m438.857143 0h73.142857a36.571429 36.571429 0 1 1 0 73.142857h-73.142857a36.571429 36.571429 0 0 1 0-73.142857z m-438.857143 146.285714h73.142857a36.571429 36.571429 0 1 1 0 73.142858h-73.142857a36.571429 36.571429 0 1 1 0-73.142858z m438.857143 0h73.142857a36.571429 36.571429 0 1 1 0 73.142858h-73.142857a36.571429 36.571429 0 1 1 0-73.142858z m-219.428572 0h73.142858a36.571429 36.571429 0 1 1 0 73.142858h-73.142858a36.571429 36.571429 0 1 1 0-73.142858z m0-146.285714h73.142858a36.571429 36.571429 0 0 1 0 73.142857h-73.142858a36.571429 36.571429 0 0 1 0-73.142857z" fill="#7b7b7b" p-id="7311"></path></svg>