<?xml version="1.0" standalone="no"?><!DOCTYPE svg PUBLIC "-//W3C//DTD SVG 1.1//EN" "http://www.w3.org/Graphics/SVG/1.1/DTD/svg11.dtd"><svg t="1681123169218" class="icon" viewBox="0 0 1024 1024" version="1.1" xmlns="http://www.w3.org/2000/svg" p-id="4112" width="16" height="16" xmlns:xlink="http://www.w3.org/1999/xlink"><path d="M288 556.256V223.712l430.464 0.32-120.352 165.952 120.384 166.016L288 556.256z m500.352-12.928l-111.168-153.344 111.168-153.344c12.192-16.832 14.528-35.648 6.368-51.584-8.128-15.936-24.736-25.056-45.568-25.056H288.064A63.968 63.968 0 0 0 224 223.712V864a32 32 0 0 0 64 0v-244H749.152c20.96 0 37.664-9.12 45.76-25.024 8.096-15.872 5.728-34.72-6.56-51.648z" fill="#2C3E50" p-id="4113"></path></svg>