<?xml version="1.0" standalone="no"?><!DOCTYPE svg PUBLIC "-//W3C//DTD SVG 1.1//EN" "http://www.w3.org/Graphics/SVG/1.1/DTD/svg11.dtd"><svg t="1679643487192" class="icon" viewBox="0 0 1024 1024" version="1.1" xmlns="http://www.w3.org/2000/svg" p-id="3704" width="16" height="16" xmlns:xlink="http://www.w3.org/1999/xlink"><path d="M866 532.2V281.4c0-53.1-43.1-96.3-96.1-96.3h-28.3v-28.3c0-32-26-58-58-58s-58 26-58 58v30.7h-85.1v-30.7c0-32-26-58-58-58s-58 26-58 58v30.7h-85.2v-30.7c0-32-26-58-58-58s-58 26-58 58v28.3h-28.1c-53.1 0-96.3 43.2-96.3 96.3v489.2c0 53.2 43.2 96.5 96.3 96.5h338.2c43.2 38.3 98.2 59.2 156.5 59.2 63.1 0 122.5-24.6 167.2-69.2 44.6-44.7 69.2-104 69.2-167.2 0-58.8-21.3-114.3-60.3-157.7zM665 156.8c0-10.3 8.3-18.6 18.6-18.6s18.6 8.3 18.6 18.6v46c-0.1 0.7-0.1 1.3-0.1 2s0 1.3 0.1 2v64.9c0 10.3-8.3 18.7-18.6 18.7s-18.6-8.3-18.6-18.6v-115z m-201.1 0c0-10.3 8.3-18.6 18.6-18.6s18.6 8.3 18.6 18.6v114.9c0 10.3-8.3 18.7-18.6 18.7s-18.6-8.3-18.6-18.6v-115z m-182.6-18.6c10.3 0 18.6 8.3 18.6 18.6v115c0 4.9-1.9 9.6-5.4 13.1-3.5 3.5-8.2 5.5-13.2 5.5-10.3 0-18.6-8.3-18.6-18.6v-65c0.1-0.7 0.1-1.3 0.1-2s0-1.3-0.1-2v-46c0-10.3 8.3-18.6 18.6-18.6z m-86.1 86.3h28.1v47.3c0 32 26 58 58 58 15.6 0 30.2-6.1 41.1-17.1 10.9-11 16.9-25.6 16.9-41v-44.8h85.2v44.9c0 32 26 58 58 58s58-26.1 58-58.1v-44.8h85.1v44.9c0 32 26 58 58 58s58-26.1 58-58.1v-47.2h28.3c31.3 0 56.7 25.5 56.7 56.9v93.3H138.3v-93.3c0-31.4 25.5-56.9 56.9-56.9z m-56.9 546.1V414.1h688.3V497c-39.7-28.2-87-43.5-136.7-43.5-63.1 0-122.5 24.6-167.2 69.2l-0.3 0.3v-59.7h-78.8v98.5h47.5c-24.5 37.8-37.6 81.9-37.6 128 0 50.1 15.5 97.9 44.3 137.8H195.2c-31.4 0.1-56.9-25.5-56.9-57z m364.4-228.5h-39.4V483h39.4v59.1z m187.2 344.8c-108.6 0-197-88.4-197-197s88.4-197 197-197 197 88.4 197 197-88.4 197-197 197z" p-id="3705" fill="#ffffff"></path><path d="M689.9 522.4c-92.3 0-167.5 75.1-167.5 167.5 0 92.3 75.1 167.5 167.5 167.5 92.3 0 167.5-75.1 167.5-167.5 0-92.3-75.2-167.5-167.5-167.5z m0 315.2c-81.5 0-147.8-66.3-147.8-147.7 0-81.5 66.3-147.8 147.8-147.8 81.5 0 147.7 66.3 147.7 147.8 0 81.5-66.2 147.7-147.7 147.7zM207.1 561.9H286v-98.5h-78.8v98.5z m19.8-78.8h39.4v59.1h-39.4v-59.1zM325.4 561.9h78.8v-98.5h-78.8v98.5z m19.7-78.8h39.4v59.1h-39.4v-59.1zM207.1 758.9H286v-98.5h-78.8v98.5z m19.8-78.8h39.4v59.1h-39.4v-59.1zM325.4 758.9h78.8v-98.5h-78.8v98.5z m19.7-78.8h39.4v59.1h-39.4v-59.1z" p-id="3706" fill="#ffffff"></path><path d="M788.4 670.1h-88.6v-88.6c0-5.4-4.4-9.9-9.9-9.9s-9.9 4.4-9.9 9.9v108.4h108.4c5.4 0 9.9-4.4 9.9-9.9s-4.5-9.9-9.9-9.9z" p-id="3707" fill="#ffffff"></path></svg>