<?xml version="1.0" standalone="no"?><!DOCTYPE svg PUBLIC "-//W3C//DTD SVG 1.1//EN" "http://www.w3.org/Graphics/SVG/1.1/DTD/svg11.dtd"><svg t="1682329440098" class="icon" viewBox="0 0 1024 1024" version="1.1" xmlns="http://www.w3.org/2000/svg" p-id="3669" xmlns:xlink="http://www.w3.org/1999/xlink" width="16" height="16"><path d="M512 56.889344c251.35104 0 455.110656 203.759616 455.110656 455.110656S763.35104 967.110656 512 967.110656 56.889344 763.35104 56.889344 512 260.64896 56.889344 512 56.889344z m180.675584 274.316288c-11.108352-11.108352-29.118464-11.108352-40.226816 0L511.65696 471.998464 370.864128 331.205632c-11.108352-11.108352-29.118464-11.108352-40.226816 0-11.108352 11.108352-11.108352 29.118464 0 40.226816L471.42912 512.22528 330.637312 653.018112c-11.108352 11.108352-11.108352 29.118464 0 40.226816 11.108352 11.108352 29.118464 11.108352 40.226816 0l140.792832-140.792832 140.791808 140.792832c11.108352 11.108352 29.118464 11.108352 40.226816 0 11.108352-11.108352 11.108352-29.118464 0-40.226816L551.882752 512.22528l140.792832-140.792832c11.108352-11.108352 11.108352-29.118464 0-40.226816z" fill="#000000" p-id="3670"></path></svg>