<?xml version="1.0" standalone="no"?><!DOCTYPE svg PUBLIC "-//W3C//DTD SVG 1.1//EN" "http://www.w3.org/Graphics/SVG/1.1/DTD/svg11.dtd"><svg class="icon" width="16px" height="16.00px" viewBox="0 0 1024 1024" version="1.1" xmlns="http://www.w3.org/2000/svg"><path fill="#202020" d="M923.818667 194.922667v64l-422.122667-0.021334v469.333334h198.549333a117.376 117.376 0 0 1 220.864 0.021333h2.709334v8.576a117.333333 117.333333 0 0 1-227.968 55.466667l-282.368-0.021334a117.376 117.376 0 0 1-229.632 0l-92.266667-0.021333-0.021333-271.637333 185.962666-185.941334h160.170667V194.922667h486.122667zM298.666667 714.666667a53.333333 53.333333 0 1 0 0 106.666666 53.333333 53.333333 0 0 0 0-106.666666z m512 0a53.333333 53.333333 0 1 0 0 106.666666 53.333333 53.333333 0 0 0 0-106.666666zM304.021333 398.656l-148.48 148.48 0.021334 181.098667h32.682666a117.376 117.376 0 0 1 220.842667 0h28.608V398.677333l-133.674667-0.021333zM927.850667 341.333333l0.298666 64-324.181333 1.557334-0.32-64L927.850667 341.333333z"  /></svg>