<?xml version="1.0" standalone="no"?><!DOCTYPE svg PUBLIC "-//W3C//DTD SVG 1.1//EN" "http://www.w3.org/Graphics/SVG/1.1/DTD/svg11.dtd"><svg class="icon" width="16px" height="16.00px" viewBox="0 0 1024 1024" version="1.1" xmlns="http://www.w3.org/2000/svg"><path fill="#202020" d="M245.333333 533.333333v288h512V533.333333h64v352h-640V533.333333h64zM834.624 139.050667l45.077333 150.869333a149.333333 149.333333 0 0 1-255.722666 139.52l-3.669334-4.330667L618.666667 423.04l-1.642667 2.090667a149.248 149.248 0 0 1-104.533333 54.485333l-6.016 0.32-5.141334 0.085333a149.12 149.12 0 0 1-112.021333-50.56l-3.669333-4.330666L384 423.04l-1.642667 2.090667a149.248 149.248 0 0 1-104.533333 54.485333l-6.016 0.32-5.141333 0.085333a149.333333 149.333333 0 0 1-145.301334-183.808l1.792-6.890666 45.909334-150.250667h665.557333z m-47.68 63.978666H216.426667L184.533333 307.370667a84.693333 84.693333 0 0 0-2.389333 11.456l-0.597333 5.888-0.213334 5.952a85.333333 85.333333 0 0 0 169.813334 12.16l0.512-4.352 2.624-29.12h59.434666l2.624 29.12a85.333333 85.333333 0 0 0 169.472 4.330666l0.512-4.330666 2.624-29.12h59.434667l2.624 29.12a85.333333 85.333333 0 1 0 168.32-26.346667l-1.066667-4.330667-31.317333-104.768z"  /></svg>