<?xml version="1.0" standalone="no"?><!DOCTYPE svg PUBLIC "-//W3C//DTD SVG 1.1//EN" "http://www.w3.org/Graphics/SVG/1.1/DTD/svg11.dtd"><svg class="icon" width="16px" height="16.00px" viewBox="0 0 1024 1024" version="1.1" xmlns="http://www.w3.org/2000/svg"><path fill="#202020" d="M512 96c229.76 0 416 186.24 416 416S741.76 928 512 928 96 741.76 96 512 282.24 96 512 96z m0 64C317.589333 160 160 317.589333 160 512S317.589333 864 512 864 864 706.410667 864 512 706.410667 160 512 160z m26.176 106.666667c57.088 0 109.888 28.032 147.84 75.754666l4.138667 5.397334-51.221334 38.357333c-26.624-35.562667-62.762667-55.509333-100.757333-55.509333-49.301333 0-93.824 33.770667-118.912 85.312h116.330667v64h-135.530667a233.642667 233.642667 0 0 0 0 64h135.530667v64l-116.352 0.021333c25.109333 51.541333 69.632 85.333333 118.933333 85.333333 36.266667 0 70.826667-18.176 97.066667-50.773333l3.690666-4.736 51.221334 38.357333c-38.186667 50.986667-92.8 81.152-151.978667 81.152-85.546667 0-157.290667-62.016-188.117333-149.333333h-57.194667v-64h42.730667a297.066667 297.066667 0 0 1 0-64h-42.730667v-64l57.216-0.021333c30.826667-87.296 102.549333-149.312 188.096-149.312z"  /></svg>