<?xml version="1.0" standalone="no"?><!DOCTYPE svg PUBLIC "-//W3C//DTD SVG 1.1//EN" "http://www.w3.org/Graphics/SVG/1.1/DTD/svg11.dtd"><svg class="icon" width="16px" height="16.00px" viewBox="0 0 1024 1024" version="1.1" xmlns="http://www.w3.org/2000/svg"><path fill="#ffffff" d="M430.08 134.549333l9.664 25.216A65.984 65.984 0 0 0 501.333333 202.346667a66.069333 66.069333 0 0 0 60.010667-38.869334l1.6-3.754666 9.706667-25.173334 26.154666 6.656c32.789333 8.341333 64.170667 20.842667 93.610667 37.162667l9.749333 5.589333 23.317334 13.781334-11.029334 24.746666a66.005333 66.005333 0 0 0 13.482667 73.642667 65.770667 65.770667 0 0 0 69.632 15.104l3.968-1.621333 24.704-10.986667 13.781333 23.253333a391.253333 391.253333 0 0 1 39.829334 92.437334l2.944 10.88 6.677333 26.197333-25.237333 9.685333a66.026667 66.026667 0 0 0-42.453334 57.493334l-0.128 4.096 0.128 4.096a65.962667 65.962667 0 0 0 38.485334 55.829333l3.968 1.664 25.237333 9.685333-6.677333 26.197334a389.205333 389.205333 0 0 1-37.269334 93.653333l-5.610666 9.706667L826.133333 746.666667l-24.64-10.922667a66.154667 66.154667 0 0 0-73.664 13.504 65.898667 65.898667 0 0 0-15.061333 69.674667l1.621333 3.968 10.986667 24.704-23.253333 13.781333a391.317333 391.317333 0 0 1-92.437334 39.829333l-10.88 2.944-26.197333 6.677334-9.685333-25.237334a65.984 65.984 0 0 0-61.589334-42.581333 66.069333 66.069333 0 0 0-60.010666 38.869333l-1.6 3.754667-9.706667 25.173333-26.154667-6.656a392.853333 392.853333 0 0 1-93.632-37.162666l-9.728-5.589334-23.317333-13.781333 11.029333-24.746667a66.005333 66.005333 0 0 0-13.482666-73.642666 65.770667 65.770667 0 0 0-69.632-15.104l-3.968 1.621333L176.426667 746.666667l-13.781334-23.253334a391.189333 391.189333 0 0 1-39.829333-92.416l-2.944-10.88-6.677333-26.197333 25.237333-9.685333A65.984 65.984 0 0 0 181.013333 522.666667a66.069333 66.069333 0 0 0-38.869333-60.032l-3.754667-1.578667-25.173333-9.706667 6.656-26.154666c8.384-32.896 20.906667-64.298667 37.269333-93.653334l5.610667-9.706666L176.533333 298.666667l24.64 10.922666a66.133333 66.133333 0 0 0 73.664-13.525333 65.877333 65.877333 0 0 0 15.061334-69.653333l-1.621334-3.968-10.986666-24.704 23.253333-13.781334a391.232 391.232 0 0 1 92.437333-39.829333l10.88-2.944 26.197334-6.656z m176.448 72.256l-1.322667 1.984a126.613333 126.613333 0 0 1-98.602666 54.250667l-5.269334 0.106667a126.506667 126.506667 0 0 1-103.936-54.4l-1.301333-1.941334-7.530667 2.602667c-9.898667 3.541333-19.626667 7.573333-29.141333 12.053333l-6.997333 3.434667 0.64 3.328a126.485333 126.485333 0 0 1-31.445334 106.922667l-3.776 3.946666a126.677333 126.677333 0 0 1-110.869333 35.264l-3.370667-0.64-3.456 7.04c-4.48 9.493333-8.512 19.2-12.074666 29.12l-2.602667 7.594667 1.984 1.322667a126.613333 126.613333 0 0 1 54.250667 98.602666l0.106666 5.269334a126.506667 126.506667 0 0 1-54.4 103.936l-1.941333 1.28 2.602667 7.552c3.562667 9.898667 7.573333 19.626667 12.053333 29.141333l3.434667 6.997333 3.328-0.64a126.336 126.336 0 0 1 106.922666 31.530667l3.946667 3.776a126.549333 126.549333 0 0 1 35.2 110.933333l-0.618667 3.221334 7.04 3.477333c9.536 4.48 19.264 8.490667 29.184 12.053333l7.552 2.581334 1.344-1.962667a126.613333 126.613333 0 0 1 98.602667-54.250667l5.269333-0.106666a126.506667 126.506667 0 0 1 103.936 54.4l1.28 1.898666 7.552-2.56c9.92-3.562667 19.626667-7.573333 29.141334-12.053333l6.997333-3.456-0.64-3.306667a126.506667 126.506667 0 0 1 31.466667-106.922666l3.754666-3.946667a126.698667 126.698667 0 0 1 110.869334-35.264l3.349333 0.618667 3.477333-7.018667c4.48-9.493333 8.512-19.2 12.074667-29.12l2.56-7.573333-1.92-1.28a126.528 126.528 0 0 1-54.272-98.666667l-0.106667-5.269333 0.106667-5.269334a126.549333 126.549333 0 0 1 54.293333-98.666666l1.92-1.322667-2.56-7.509333c-3.562667-9.898667-7.594667-19.626667-12.074666-29.141334l-3.456-7.018666-3.328 0.64a126.336 126.336 0 0 1-106.901334-31.509334l-3.946666-3.776a126.549333 126.549333 0 0 1-35.2-110.933333l0.597333-3.242667-7.04-3.456c-9.536-4.48-19.264-8.512-29.184-12.074666l-7.552-2.581334z m-105.194667 188.8a127.082667 127.082667 0 0 1 127.04 127.061334 127.082667 127.082667 0 0 1-122.282666 126.933333l-4.757334 0.106667-4.757333-0.085334a127.082667 127.082667 0 0 1-122.282667-126.954666 127.082667 127.082667 0 0 1 127.04-127.04z m0 60.8a66.282667 66.282667 0 0 0-66.24 66.261334 66.282667 66.282667 0 0 0 62.485334 66.133333l3.754666 0.106667 3.754667-0.106667a66.282667 66.282667 0 0 0 62.378667-62.378667l0.106666-3.754666a66.282667 66.282667 0 0 0-66.24-66.24z"  /></svg>