<?xml version="1.0" standalone="no"?><!DOCTYPE svg PUBLIC "-//W3C//DTD SVG 1.1//EN" "http://www.w3.org/Graphics/SVG/1.1/DTD/svg11.dtd"><svg class="icon" width="16px" height="16.00px" viewBox="0 0 1024 1024" version="1.1" xmlns="http://www.w3.org/2000/svg"><path fill="#ffffff" d="M512 117.333333c229.76 0 416 186.24 416 416S741.76 949.333333 512 949.333333 96 763.093333 96 533.333333 282.24 117.333333 512 117.333333z m-32 65.429334c-179.413333 16.170667-320 166.954667-320 350.570666 0 194.410667 157.589333 352 352 352 85.674667 0 164.202667-30.613333 225.237333-81.493333L498.752 565.333333H480V182.762667z m302.506667 575.786666a350.421333 350.421333 0 0 0 80.064-193.216H589.226667l193.28 193.237334zM544 182.784V501.333333h318.570667C847.36 332.501333 712.874667 197.973333 544 182.784z"  /></svg>