<?xml version="1.0" standalone="no"?><!DOCTYPE svg PUBLIC "-//W3C//DTD SVG 1.1//EN" "http://www.w3.org/Graphics/SVG/1.1/DTD/svg11.dtd"><svg class="icon" width="16px" height="16.00px" viewBox="0 0 1024 1024" version="1.1" xmlns="http://www.w3.org/2000/svg"><path fill="#202020" d="M885.333333 160v768h-768v-768h768z m-64 64h-640v640h640v-640z m-234.624 92.928l63.317334 9.216-12.864 88.277333h57.898666v64h-67.242666l-15.552 106.666667h82.794666v64h-92.117333l-15.104 103.744-63.338667-9.216 13.781334-94.528h-106.005334l-15.104 103.744-63.338666-9.216 13.781333-94.528h-56.554667v-64h65.877334l15.552-106.666667h-81.429334v-64h90.752l14.229334-97.493333 63.317333 9.216-12.864 88.277333h105.984l14.229333-97.493333z m-39.104 268.16l15.552-106.666667h-106.005333l-15.552 106.666667h106.005333z"  /></svg>