<?xml version="1.0" standalone="no"?><!DOCTYPE svg PUBLIC "-//W3C//DTD SVG 1.1//EN" "http://www.w3.org/Graphics/SVG/1.1/DTD/svg11.dtd"><svg class="icon" width="16px" height="16.00px" viewBox="0 0 1024 1024" version="1.1" xmlns="http://www.w3.org/2000/svg"><path fill="#202020" d="M150.058667 254.378667l-1.493334 1.493333a196.266667 196.266667 0 0 0 0 277.568L522.666667 907.562667l374.101333-374.122667a196.266667 196.266667 0 0 0 3.968-273.493333l-5.461333-5.568-4.096-3.968a196.266667 196.266667 0 0 0-273.493334 3.968L522.666667 349.397333l-95.018667-95.018666a196.266667 196.266667 0 0 0-277.546667 0z m43.754666 46.762666l1.493334-1.493333a132.266667 132.266667 0 0 1 187.072 0l140.266666 140.245333 140.309334-140.266666a132.266667 132.266667 0 0 1 187.050666 0l4.885334 5.013333a132.266667 132.266667 0 0 1-3.370667 183.552L522.645333 817.024 193.813333 488.192a132.266667 132.266667 0 0 1 0-187.050667z"  /></svg>