<?xml version="1.0" standalone="no"?><!DOCTYPE svg PUBLIC "-//W3C//DTD SVG 1.1//EN" "http://www.w3.org/Graphics/SVG/1.1/DTD/svg11.dtd"><svg class="icon" width="16px" height="16.00px" viewBox="0 0 1024 1024" version="1.1" xmlns="http://www.w3.org/2000/svg"><path fill="#ffffff" d="M512 96c229.76 0 416 186.24 416 416 0 30.762667-3.349333 61.098667-9.898667 90.624l-2.624 11.029333-62.08-15.573333c7.04-27.904 10.602667-56.746667 10.602667-86.08 0-194.410667-157.589333-352-352-352S160 317.589333 160 512 317.589333 864 512 864a350.506667 350.506667 0 0 0 225.408-81.621333l2.304-1.984-250.090667-245.546667 44.757334-45.717333 258.538666 253.824 38.314667 37.696-22.4 22.826666A414.762667 414.762667 0 0 1 512 928C282.24 928 96 741.76 96 512S282.24 96 512 96z m0 213.333333a202.666667 202.666667 0 0 1 198.613333 243.178667l-1.770666 7.893333-62.165334-15.232a138.666667 138.666667 0 1 0-107.968 102.933334l6.506667-1.429334 15.253333 62.144A202.666667 202.666667 0 1 1 512 309.333333z"  /></svg>