<?xml version="1.0" standalone="no"?><!DOCTYPE svg PUBLIC "-//W3C//DTD SVG 1.1//EN" "http://www.w3.org/Graphics/SVG/1.1/DTD/svg11.dtd"><svg class="icon" width="16px" height="16.00px" viewBox="0 0 1024 1024" version="1.1" xmlns="http://www.w3.org/2000/svg"><path fill="#ffffff" d="M433.066667 779.946667a138.666667 138.666667 0 1 1-167.338667-165.056V410.666667H169.685333v-256h256v92.778666h202.602667a138.709333 138.709333 0 0 1 131.52-114.026666l4.970667-0.085334a138.666667 138.666667 0 0 1 33.450666 273.28l-0.021333 215.232h94.570667v256h-256v-97.92h-203.690667z m-135.381334-104.746667a74.666667 74.666667 0 1 0 0 149.333333 74.666667 74.666667 0 0 0 0-149.333333z m531.093334 10.645333h-128v128h128v-128z m-196.970667-374.4h-206.122667v99.221334h-95.957333v204.245333a138.88 138.88 0 0 1 102.442667 101.013333h204.608v-94.08h97.429333V407.296a138.901333 138.901333 0 0 1-102.4-95.829333z m132.970667-114.112a74.666667 74.666667 0 1 0 0 149.333334 74.666667 74.666667 0 0 0 0-149.333334z m-403.093334 21.333334h-128v128h128v-128z"  /></svg>