<?xml version="1.0" standalone="no"?><!DOCTYPE svg PUBLIC "-//W3C//DTD SVG 1.1//EN" "http://www.w3.org/Graphics/SVG/1.1/DTD/svg11.dtd"><svg class="icon" width="16px" height="16.00px" viewBox="0 0 1024 1024" version="1.1" xmlns="http://www.w3.org/2000/svg"><path fill="#202020" d="M512 138.666667a117.333333 117.333333 0 0 1 91.605333 190.656l195.541334 338.688A117.333333 117.333333 0 1 1 702.570667 810.666667H321.429333a117.333333 117.333333 0 1 1-96.576-142.656l195.541334-338.688A117.333333 117.333333 0 0 1 512 138.666667z m-258.645333 618.666666a53.333333 53.333333 0 1 0-92.373334 53.333334 53.333333 53.333333 0 0 0 92.373334-53.333334z m590.144-19.52a53.333333 53.333333 0 1 0-53.333334 92.373334 53.333333 53.333333 0 0 0 53.333334-92.373334z m-292.266667-371.2A117.12 117.12 0 0 1 512 373.333333c-13.76 0-26.965333-2.346667-39.210667-6.72l-189.44 328.106667A117.141333 117.141333 0 0 1 318.421333 746.666667h387.157334a117.888 117.888 0 0 1 35.072-51.946667l-189.44-328.106667zM512 202.666667a53.333333 53.333333 0 1 0 0 106.666666 53.333333 53.333333 0 0 0 0-106.666666z"  /></svg>