<?xml version="1.0" standalone="no"?><!DOCTYPE svg PUBLIC "-//W3C//DTD SVG 1.1//EN" "http://www.w3.org/Graphics/SVG/1.1/DTD/svg11.dtd"><svg class="icon" width="16px" height="16.00px" viewBox="0 0 1024 1024" version="1.1" xmlns="http://www.w3.org/2000/svg"><path fill="#ffffff" d="M522.666667 288v149.333333h362.666666v469.333334h-746.666666v-618.666667h384z m-64 64h-256v490.666667h618.666666v-341.333334h-362.666666v-149.333333zM746.666667 704v64h-64v-64h64z m-149.333334 0v64h-64v-64h64z m149.333334-128v64h-64v-64h64z m-149.333334 0v64h-64v-64h64z m-213.333333-138.410667v64h-106.666667v-64h106.666667z m20.288-317.056c42.496-8.042667 68.010667-3.669333 115.584 19.882667l16.917333 8.490667 9.109334 4.266666c19.626667 8.917333 31.466667 11.477333 46.613333 10.176l4.202667-0.426666 7.210666-1.109334 3.882667-0.682666a106.474667 106.474667 0 0 0 63.872-38.826667l3.328-4.416 52.053333 37.248-3.925333 5.290667a170.517333 170.517333 0 0 1-103.466667 63.573333c-42.496 8.021333-68.053333 3.648-115.605333-19.904l-16.917333-8.469333c-27.157333-13.248-40.149333-16.384-59.456-14.037334l-3.946667 0.533334-7.552 1.301333a106.602667 106.602667 0 0 0-63.914667 38.826667l-3.328 4.394666-52.032-37.290666 3.946667-5.269334A170.624 170.624 0 0 1 404.266667 120.533333z"  /></svg>