<?xml version="1.0" standalone="no"?><!DOCTYPE svg PUBLIC "-//W3C//DTD SVG 1.1//EN" "http://www.w3.org/Graphics/SVG/1.1/DTD/svg11.dtd"><svg t="1679654460397" class="icon" viewBox="0 0 1024 1024" version="1.1" xmlns="http://www.w3.org/2000/svg" p-id="12214" xmlns:xlink="http://www.w3.org/1999/xlink" width="16" height="16"><path d="M251.254418 224.735437l695.848215 0 0 52.188616-695.848215 0 0-52.188616Z" fill="#ffffff" p-id="12215"></path><path d="M251.254418 485.678518l695.848215 0 0 52.188616-695.848215 0 0-52.188616Z" fill="#ffffff" p-id="12216"></path><path d="M251.254418 746.621599l695.848215 0 0 52.188616-695.848215 0 0-52.188616Z" fill="#ffffff" p-id="12217"></path><path d="M77.292364 224.735437l52.188616 0 0 52.188616-52.188616 0 0-52.188616Z" fill="#ffffff" p-id="12218"></path><path d="M77.292364 485.678518l52.188616 0 0 52.188616-52.188616 0 0-52.188616Z" fill="#ffffff" p-id="12219"></path><path d="M77.292364 746.621599l52.188616 0 0 52.188616-52.188616 0 0-52.188616Z" fill="#ffffff" p-id="12220"></path></svg>