<?xml version="1.0" standalone="no"?><!DOCTYPE svg PUBLIC "-//W3C//DTD SVG 1.1//EN" "http://www.w3.org/Graphics/SVG/1.1/DTD/svg11.dtd"><svg class="icon" width="16px" height="16.00px" viewBox="0 0 1024 1024" version="1.1" xmlns="http://www.w3.org/2000/svg"><path fill="#ffffff" d="M512 96c229.76 0 416 186.24 416 416S741.76 928 512 928 96 741.76 96 512 282.24 96 512 96z m0 64C317.589333 160 160 317.589333 160 512S317.589333 864 512 864 864 706.410667 864 512 706.410667 160 512 160z m0 155.904L708.096 512 512 708.096 315.904 512 512 315.904z m0 90.517333l-105.6 105.6L512 617.6 617.557333 512l-105.6-105.6z"  /></svg>