<?xml version="1.0" standalone="no"?><!DOCTYPE svg PUBLIC "-//W3C//DTD SVG 1.1//EN" "http://www.w3.org/Graphics/SVG/1.1/DTD/svg11.dtd"><svg class="icon" width="16px" height="16.00px" viewBox="0 0 1024 1024" version="1.1" xmlns="http://www.w3.org/2000/svg"><path fill="#202020" d="M512 96c229.76 0 416 186.24 416 416S741.76 928 512 928 96 741.76 96 512 282.24 96 512 96z m0 64C317.589333 160 160 317.589333 160 512S317.589333 864 512 864 864 706.410667 864 512 706.410667 160 512 160z m105.386667 117.034667l45.226666 45.248-136.661333 136.682666H682.666667v64h-138.666667v81.941334H682.666667v64h-138.666667v100.8h-64v-100.8H341.333333v-64h138.666667v-81.941334H341.333333v-64h156.714667l-136.682667-136.682666 45.269334-45.226667L512 382.4l105.386667-105.386667z"  /></svg>