<?xml version="1.0" standalone="no"?><!DOCTYPE svg PUBLIC "-//W3C//DTD SVG 1.1//EN" "http://www.w3.org/Graphics/SVG/1.1/DTD/svg11.dtd">
<svg t="1681122555279" class="icon" viewBox="0 0 1024 1024" version="1.1" xmlns="http://www.w3.org/2000/svg" p-id="3587"
  xmlns:xlink="http://www.w3.org/1999/xlink" width="16" height="16">
  <path
    d="M360.56779688 208.62508741c-34.36511523 0-67.99940039 4.49782689-100.94584596 13.48810643v333.59686817c33.63428515-6.63120457 67.31156078-10.00054371 100.94584596-10.00054443 24.86970288 0 49.77702271 2.80509595 74.67359472 8.53888501 24.89119848 5.7284148 53.1786045 13.8212788 84.93745191 24.38069213 4.05180591 1.46165942 11.60729444 4.04643164 22.72020458 7.75431739 11.15052563 3.81536083 19.28100586 6.51835596 24.45055103 8.20033837 5.21253491 1.68735668 12.77339771 3.933583 22.76856787 6.85690186 9.9736753 2.91794459 18.36209473 4.94384789 25.10614795 6.28728443 6.7548003 1.34881079 14.55210816 2.58477222 23.26832642 3.70788575 8.74846094 1.12848706 17.07776929 1.68735668 25.00942065 1.68735668 34.34899389 0 68.00477393-4.37960401 100.94584596-13.36988354v-333.7097168a512.70387084 512.70387084 0 0 1-100.94584596 10.11339306c-24.9180669 0-49.81463891-2.92331885-74.67359472-8.65173364-24.87507714-5.73378833-53.1893523-13.8212788-84.91595705-24.38069214a3468.10913109 3468.10913109 0 0 1-22.7846892-7.75431738 3037.58598023 3037.58598023 0 0 0-24.46129882-8.09286401c-5.16954517-1.68198315-12.74115503-3.92820948-22.71483032-6.8515276-9.9736753-2.92331885-18.34597412-5.05669653-25.1115215-6.40550732-6.77092164-1.23596215-14.52523901-2.47192359-23.26832641-3.70788573a196.76513648 196.76513648 0 0 0-25.00404711-1.68735669zM360.56779688 141.21142578c18.55555005 0 38.5835066 2.36444921 59.95490039 6.96437695 21.36064599 4.72352416 41.97971484 10.33909033 61.79272191 16.85744556l59.39065651 19.77539087s20.62444238 5.61556616 61.81959106 16.85207202c41.17365308 11.23650586 61.17474121 13.59558082 59.92803125 6.96437623 18.93708569 0 37.60548438-1.12311352 56.00519604-3.36933984 18.43195362-2.24622632 34.09642749-5.05132227 47.09552247-8.42603566 12.99372143-3.36933983 24.55802613-6.63120457 34.81650977-9.99517016 10.25311011-3.37471337 17.92682152-6.17980933 23.00501294-8.43678344l7.36203393-3.36396631V646.82732324c-1.75184132 0.89741553-4.38497827 2.13337768-7.88866089 3.59503711-3.53055176 1.46165942-10.93557617 4.15928028-22.22044604 8.20033911a361.85203222 361.85203222 0 0 1-35.35925807 10.22624097c-12.2790127 2.92331885-27.75003199 5.62093969-46.43992552 8.09286402a428.23393481 428.23393481 0 0 1-56.37061037 3.70788574c-18.56092358 0-38.56201172-2.36444921-59.93340551-7.08259912a580.568927 580.568927 0 0 1-61.81959106-16.85207203l-59.39065651-19.66791576-61.79809545-16.95954713c-41.18977441-11.12365723-61.17474121-13.48810643-59.94952685-6.96975048-33.47844678 0-67.13422681 3.82073437-100.94584596 11.34935449v224.60652221c0 9.32882543-3.28873316 17.30346656-9.88769507 23.82182251-6.57209277 6.63120457-14.50374415 9.88769508-23.79495409 9.8876958-9.2858357 0-17.21748706-3.25649121-23.79495338-9.8876958C195.55076001 866.38252319 192.26202685 858.40788208 192.26202685 849.07905664V175.033792c1.75184132-0.90278978 4.40647314-2.13875122 7.91015577-3.60041065 3.50905689-1.45628588 10.91408129-4.26675536 22.19895117-8.20033838a361.85203222 361.85203222 0 0 1 35.35925806-10.22624169c12.30588183-2.91794459 27.79302172-5.61556616 46.41843066-8.08748976A429.46989625 429.46989625 0 0 1 360.546302 141.21142578h0.02149488z"
    p-id="3588"></path>
</svg>